<svg xmlns="http://www.w3.org/2000/svg" width="67" height="67" viewBox="0 0 67 67"><defs><style>.a,.e{fill:none;}.a{stroke:#b4b7be;}.b{fill:#f9b233;}.c{fill:#2b343b;}.d{stroke:none;}</style></defs><g transform="translate(-757 -959)"><g transform="translate(-314 -11)"><g class="a" transform="translate(1071 970)"><circle class="d" cx="33.5" cy="33.5" r="33.5"/><circle class="e" cx="33.5" cy="33.5" r="33"/></g></g><g transform="translate(770.595 972.094)"><g transform="translate(23.301 0.742)"><path class="b" d="M147.951,2.9l-1.918.512L145.7,4.9l3.939.077Z" transform="translate(-143.04 -2.9)"/><path class="b" d="M138.779,15.8l-2.66.026-.819,1.816.921,1.2Z" transform="translate(-135.3 -12.5)"/><path class="b" d="M148.9,19.988l1.3,1.074,2-3.862-2.865.665Z" transform="translate(-145.421 -13.542)"/></g><path class="c" d="M51.578,182.7,44.8,189.709l5.372,3.5,4.758-2.046-2.763-3.044Z" transform="translate(-37.359 -152.4)"/><path class="c" d="M36.326.8,33.08.511,31.074,0,30.053.4l.967,1.714-.456,1.368,1.313.62,1.477-1.021L34.1,2.061,33.846,3.5l1.842,1.587,1.2-1.2-.8,1.532-1,2.936,1.459.985-1.933.4L28.9,11.762,23.561,8.826,20.1,8.644l-2.425,1.532,4.249,2.936-1.988,6.273L20.37,13.4l-3.738-2.553-5.4-2.517L6.492,13l1.039,7.4,2.626,3.355,4.723,1.915-4.96-.912-2.79-2.7L4.395,28.23l-2.845.164,2.972,1.842-.292,3.52L0,35.36l2.626,3.593,4.45-.511,7.769-7.677-2.061-2.316,3.082,2.188-2.444,2.334,5.69,1.623.8-1.076L19,31.476l1.659,1.97-4.851,7.367h6.383l3.738-6.127,1.951-11.817,4.632-3.483L39.463,11.4l.346-7.586Zm-10.3,12.765-.967.912.219,1.659L24.2,14.133l1.587-1.295,2.079.657Z"/><path class="c" d="M145.7,165.52l3.274,6.574,5.781-.793-7.239-15.5Z" transform="translate(-121.201 -132.381)"/></g></g></svg>